# Blender v2.79 (sub 0) OBJ File: ''
# www.blender.org
g LensSmooth
v 0.000000 -0.057042 0.000000
v 0.000000 0.057042 0.000000
v 0.000000 -0.339993 -1.000000
v 0.000000 0.339993 -1.000000
v 0.195090 -0.339993 -0.980785
v 0.195090 0.339993 -0.980785
v 0.382683 -0.339993 -0.923880
v 0.382683 0.339993 -0.923880
v 0.555570 -0.339993 -0.831470
v 0.555570 0.339993 -0.831470
v 0.707107 -0.339993 -0.707107
v 0.707107 0.339993 -0.707107
v 0.831470 -0.339993 -0.555570
v 0.831470 0.339993 -0.555570
v 0.923880 -0.339993 -0.382683
v 0.923880 0.339993 -0.382683
v 0.980785 -0.339993 -0.195090
v 0.980785 0.339993 -0.195090
v 1.000000 -0.339993 -0.000000
v 1.000000 0.339993 -0.000000
v 0.980785 -0.339993 0.195090
v 0.980785 0.339993 0.195090
v 0.923880 -0.339993 0.382683
v 0.923880 0.339993 0.382683
v 0.831470 -0.339993 0.555570
v 0.831470 0.339993 0.555570
v 0.707107 -0.339993 0.707107
v 0.707107 0.339993 0.707107
v 0.555570 -0.339993 0.831470
v 0.555570 0.339993 0.831470
v 0.382683 -0.339993 0.923880
v 0.382683 0.339993 0.923880
v 0.195090 -0.339993 0.980785
v 0.195090 0.339993 0.980785
v -0.000000 -0.339993 1.000000
v -0.000000 0.339993 1.000000
v -0.195091 -0.339993 0.980785
v -0.195091 0.339993 0.980785
v -0.382684 -0.339993 0.923879
v -0.382684 0.339993 0.923879
v -0.555571 -0.339993 0.831469
v -0.555571 0.339993 0.831469
v -0.707107 -0.339993 0.707106
v -0.707107 0.339993 0.707106
v -0.831470 -0.339993 0.555570
v -0.831470 0.339993 0.555570
v -0.923880 -0.339993 0.382683
v -0.923880 0.339993 0.382683
v -0.980785 -0.339993 0.195089
v -0.980785 0.339993 0.195089
v -1.000000 -0.339993 -0.000001
v -1.000000 0.339993 -0.000001
v -0.980785 -0.339993 -0.195091
v -0.980785 0.339993 -0.195091
v -0.923879 -0.339993 -0.382684
v -0.923879 0.339993 -0.382684
v -0.831469 -0.339993 -0.555571
v -0.831469 0.339993 -0.555571
v -0.707106 -0.339993 -0.707108
v -0.707106 0.339993 -0.707108
v -0.555569 -0.339993 -0.831470
v -0.555569 0.339993 -0.831470
v -0.382682 -0.339993 -0.923880
v -0.382682 0.339993 -0.923880
v -0.195089 -0.339993 -0.980786
v -0.195089 0.339993 -0.980786
vn 0.0000 -1.0000 0.0000
vn 0.0000 -0.7741 -0.6331
vn 0.1235 -0.7741 -0.6209
vn 0.0000 1.0000 0.0000
vn 0.1235 0.7741 -0.6209
vn 0.0000 0.7741 -0.6331
vn 0.2423 -0.7741 -0.5849
vn 0.2423 0.7741 -0.5849
vn 0.3517 -0.7741 -0.5264
vn 0.3517 0.7741 -0.5264
vn 0.4476 -0.7741 -0.4476
vn 0.4476 0.7741 -0.4476
vn 0.5264 -0.7741 -0.3517
vn 0.5264 0.7741 -0.3517
vn 0.5849 -0.7741 -0.2423
vn 0.5849 0.7741 -0.2423
vn 0.6209 -0.7741 -0.1235
vn 0.6209 0.7741 -0.1235
vn 0.6331 -0.7741 0.0000
vn 0.6331 0.7741 0.0000
vn 0.6209 -0.7741 0.1235
vn 0.6209 0.7741 0.1235
vn 0.5849 -0.7741 0.2423
vn 0.5849 0.7741 0.2423
vn 0.5264 -0.7741 0.3517
vn 0.5264 0.7741 0.3517
vn 0.4476 -0.7741 0.4476
vn 0.4476 0.7741 0.4476
vn 0.3517 -0.7741 0.5264
vn 0.3517 0.7741 0.5264
vn 0.2423 -0.7741 0.5849
vn 0.2423 0.7741 0.5849
vn 0.1235 -0.7741 0.6209
vn 0.1235 0.7741 0.6209
vn 0.0000 -0.7741 0.6331
vn 0.0000 0.7741 0.6331
vn -0.1235 -0.7741 0.6209
vn -0.1235 0.7741 0.6209
vn -0.2423 -0.7741 0.5849
vn -0.2423 0.7741 0.5849
vn -0.3517 -0.7741 0.5264
vn -0.3517 0.7741 0.5264
vn -0.4476 -0.7741 0.4476
vn -0.4476 0.7741 0.4476
vn -0.5264 -0.7741 0.3517
vn -0.5264 0.7741 0.3517
vn -0.5849 -0.7741 0.2423
vn -0.5849 0.7741 0.2423
vn -0.6209 -0.7741 0.1235
vn -0.6209 0.7741 0.1235
vn -0.6331 -0.7741 0.0000
vn -0.6331 0.7741 0.0000
vn -0.6209 -0.7741 -0.1235
vn -0.6209 0.7741 -0.1235
vn -0.5849 -0.7741 -0.2423
vn -0.5849 0.7741 -0.2423
vn -0.5264 -0.7741 -0.3517
vn -0.5264 0.7741 -0.3517
vn -0.4476 -0.7741 -0.4476
vn -0.4476 0.7741 -0.4476
vn -0.3517 -0.7741 -0.5264
vn -0.3517 0.7741 -0.5264
vn -0.2423 -0.7741 -0.5849
vn -0.2423 0.7741 -0.5849
vn -0.1235 -0.7741 -0.6209
vn -0.1235 0.7741 -0.6209
s 1
f 1//1 3//2 5//3
f 2//4 6//5 4//6
f 4//6 5//3 3//2
f 1//1 5//3 7//7
f 2//4 8//8 6//5
f 6//5 7//7 5//3
f 1//1 7//7 9//9
f 2//4 10//10 8//8
f 8//8 9//9 7//7
f 1//1 9//9 11//11
f 2//4 12//12 10//10
f 10//10 11//11 9//9
f 1//1 11//11 13//13
f 2//4 14//14 12//12
f 12//12 13//13 11//11
f 1//1 13//13 15//15
f 2//4 16//16 14//14
f 14//14 15//15 13//13
f 1//1 15//15 17//17
f 2//4 18//18 16//16
f 16//16 17//17 15//15
f 1//1 17//17 19//19
f 2//4 20//20 18//18
f 18//18 19//19 17//17
f 1//1 19//19 21//21
f 2//4 22//22 20//20
f 20//20 21//21 19//19
f 1//1 21//21 23//23
f 2//4 24//24 22//22
f 22//22 23//23 21//21
f 1//1 23//23 25//25
f 2//4 26//26 24//24
f 24//24 25//25 23//23
f 1//1 25//25 27//27
f 2//4 28//28 26//26
f 26//26 27//27 25//25
f 1//1 27//27 29//29
f 2//4 30//30 28//28
f 28//28 29//29 27//27
f 1//1 29//29 31//31
f 2//4 32//32 30//30
f 30//30 31//31 29//29
f 1//1 31//31 33//33
f 2//4 34//34 32//32
f 32//32 33//33 31//31
f 1//1 33//33 35//35
f 2//4 36//36 34//34
f 34//34 35//35 33//33
f 1//1 35//35 37//37
f 2//4 38//38 36//36
f 36//36 37//37 35//35
f 1//1 37//37 39//39
f 2//4 40//40 38//38
f 38//38 39//39 37//37
f 1//1 39//39 41//41
f 2//4 42//42 40//40
f 40//40 41//41 39//39
f 1//1 41//41 43//43
f 2//4 44//44 42//42
f 42//42 43//43 41//41
f 1//1 43//43 45//45
f 2//4 46//46 44//44
f 44//44 45//45 43//43
f 1//1 45//45 47//47
f 2//4 48//48 46//46
f 46//46 47//47 45//45
f 1//1 47//47 49//49
f 2//4 50//50 48//48
f 48//48 49//49 47//47
f 1//1 49//49 51//51
f 2//4 52//52 50//50
f 50//50 51//51 49//49
f 1//1 51//51 53//53
f 2//4 54//54 52//52
f 52//52 53//53 51//51
f 1//1 53//53 55//55
f 2//4 56//56 54//54
f 54//54 55//55 53//53
f 1//1 55//55 57//57
f 2//4 58//58 56//56
f 56//56 57//57 55//55
f 1//1 57//57 59//59
f 2//4 60//60 58//58
f 58//58 59//59 57//57
f 1//1 59//59 61//61
f 2//4 62//62 60//60
f 60//60 61//61 59//59
f 1//1 61//61 63//63
f 2//4 64//64 62//62
f 62//62 63//63 61//61
f 1//1 63//63 65//65
f 2//4 66//66 64//64
f 64//64 65//65 63//63
f 1//1 65//65 3//2
f 2//4 4//6 66//66
f 66//66 3//2 65//65
f 4//6 6//5 5//3
f 6//5 8//8 7//7
f 8//8 10//10 9//9
f 10//10 12//12 11//11
f 12//12 14//14 13//13
f 14//14 16//16 15//15
f 16//16 18//18 17//17
f 18//18 20//20 19//19
f 20//20 22//22 21//21
f 22//22 24//24 23//23
f 24//24 26//26 25//25
f 26//26 28//28 27//27
f 28//28 30//30 29//29
f 30//30 32//32 31//31
f 32//32 34//34 33//33
f 34//34 36//36 35//35
f 36//36 38//38 37//37
f 38//38 40//40 39//39
f 40//40 42//42 41//41
f 42//42 44//44 43//43
f 44//44 46//46 45//45
f 46//46 48//48 47//47
f 48//48 50//50 49//49
f 50//50 52//52 51//51
f 52//52 54//54 53//53
f 54//54 56//56 55//55
f 56//56 58//58 57//57
f 58//58 60//60 59//59
f 60//60 62//62 61//61
f 62//62 64//64 63//63
f 64//64 66//66 65//65
f 66//66 4//6 3//2
