# Blender v2.79 (sub 0) OBJ File: ''
# www.blender.org
g Lens
v 0.000000 -0.057042 0.000000
v 0.000000 0.057042 0.000000
v 0.000000 -0.339993 -1.000000
v 0.000000 0.339993 -1.000000
v 0.195090 -0.339993 -0.980785
v 0.195090 0.339993 -0.980785
v 0.382683 -0.339993 -0.923880
v 0.382683 0.339993 -0.923880
v 0.555570 -0.339993 -0.831470
v 0.555570 0.339993 -0.831470
v 0.707107 -0.339993 -0.707107
v 0.707107 0.339993 -0.707107
v 0.831470 -0.339993 -0.555570
v 0.831470 0.339993 -0.555570
v 0.923880 -0.339993 -0.382683
v 0.923880 0.339993 -0.382683
v 0.980785 -0.339993 -0.195090
v 0.980785 0.339993 -0.195090
v 1.000000 -0.339993 -0.000000
v 1.000000 0.339993 -0.000000
v 0.980785 -0.339993 0.195090
v 0.980785 0.339993 0.195090
v 0.923880 -0.339993 0.382683
v 0.923880 0.339993 0.382683
v 0.831470 -0.339993 0.555570
v 0.831470 0.339993 0.555570
v 0.707107 -0.339993 0.707107
v 0.707107 0.339993 0.707107
v 0.555570 -0.339993 0.831470
v 0.555570 0.339993 0.831470
v 0.382683 -0.339993 0.923880
v 0.382683 0.339993 0.923880
v 0.195090 -0.339993 0.980785
v 0.195090 0.339993 0.980785
v -0.000000 -0.339993 1.000000
v -0.000000 0.339993 1.000000
v -0.195091 -0.339993 0.980785
v -0.195091 0.339993 0.980785
v -0.382684 -0.339993 0.923879
v -0.382684 0.339993 0.923879
v -0.555571 -0.339993 0.831469
v -0.555571 0.339993 0.831469
v -0.707107 -0.339993 0.707106
v -0.707107 0.339993 0.707106
v -0.831470 -0.339993 0.555570
v -0.831470 0.339993 0.555570
v -0.923880 -0.339993 0.382683
v -0.923880 0.339993 0.382683
v -0.980785 -0.339993 0.195089
v -0.980785 0.339993 0.195089
v -1.000000 -0.339993 -0.000001
v -1.000000 0.339993 -0.000001
v -0.980785 -0.339993 -0.195091
v -0.980785 0.339993 -0.195091
v -0.923879 -0.339993 -0.382684
v -0.923879 0.339993 -0.382684
v -0.831469 -0.339993 -0.555571
v -0.831469 0.339993 -0.555571
v -0.707106 -0.339993 -0.707108
v -0.707106 0.339993 -0.707108
v -0.555569 -0.339993 -0.831470
v -0.555569 0.339993 -0.831470
v -0.382682 -0.339993 -0.923880
v -0.382682 0.339993 -0.923880
v -0.195089 -0.339993 -0.980786
v -0.195089 0.339993 -0.980786
vn -0.0268 -0.9619 0.2722
vn -0.0268 0.9619 0.2722
vn 0.0980 0.0000 -0.9952
vn -0.0794 -0.9619 0.2617
vn -0.0794 0.9619 0.2617
vn 0.2903 0.0000 -0.9569
vn -0.1289 -0.9619 0.2412
vn -0.1289 0.9619 0.2412
vn 0.4714 0.0000 -0.8819
vn -0.1735 -0.9619 0.2114
vn -0.1735 0.9619 0.2114
vn 0.6344 0.0000 -0.7730
vn -0.2114 -0.9619 0.1735
vn -0.2114 0.9619 0.1735
vn 0.7730 0.0000 -0.6344
vn -0.2412 -0.9619 0.1289
vn -0.2412 0.9619 0.1289
vn 0.8819 0.0000 -0.4714
vn -0.2617 -0.9619 0.0794
vn -0.2617 0.9619 0.0794
vn 0.9569 0.0000 -0.2903
vn -0.2722 -0.9619 0.0268
vn -0.2722 0.9619 0.0268
vn 0.9952 0.0000 -0.0980
vn -0.2722 -0.9619 -0.0268
vn -0.2722 0.9619 -0.0268
vn 0.9952 0.0000 0.0980
vn -0.2617 -0.9619 -0.0794
vn -0.2617 0.9619 -0.0794
vn 0.9569 0.0000 0.2903
vn -0.2412 -0.9619 -0.1289
vn -0.2412 0.9619 -0.1289
vn 0.8819 0.0000 0.4714
vn -0.2114 -0.9619 -0.1735
vn -0.2114 0.9619 -0.1735
vn 0.7730 0.0000 0.6344
vn -0.1735 -0.9619 -0.2114
vn -0.1735 0.9619 -0.2114
vn 0.6344 0.0000 0.7730
vn -0.1289 -0.9619 -0.2412
vn -0.1289 0.9619 -0.2412
vn 0.4714 0.0000 0.8819
vn -0.0794 -0.9619 -0.2617
vn -0.0794 0.9619 -0.2617
vn 0.2903 0.0000 0.9569
vn -0.0268 -0.9619 -0.2722
vn -0.0268 0.9619 -0.2722
vn 0.0980 0.0000 0.9952
vn 0.0268 -0.9619 -0.2722
vn 0.0268 0.9619 -0.2722
vn -0.0980 0.0000 0.9952
vn 0.0794 -0.9619 -0.2617
vn 0.0794 0.9619 -0.2617
vn -0.2903 0.0000 0.9569
vn 0.1289 -0.9619 -0.2412
vn 0.1289 0.9619 -0.2412
vn -0.4714 0.0000 0.8819
vn 0.1735 -0.9619 -0.2114
vn 0.1735 0.9619 -0.2114
vn -0.6344 0.0000 0.7730
vn 0.2114 -0.9619 -0.1735
vn 0.2114 0.9619 -0.1735
vn -0.7730 0.0000 0.6344
vn 0.2412 -0.9619 -0.1289
vn 0.2412 0.9619 -0.1289
vn -0.8819 0.0000 0.4714
vn 0.2617 -0.9619 -0.0794
vn 0.2617 0.9619 -0.0794
vn -0.9569 0.0000 0.2903
vn 0.2722 -0.9619 -0.0268
vn 0.2722 0.9619 -0.0268
vn -0.9952 0.0000 0.0980
vn 0.2722 -0.9619 0.0268
vn 0.2722 0.9619 0.0268
vn -0.9952 0.0000 -0.0980
vn 0.2617 -0.9619 0.0794
vn 0.2617 0.9619 0.0794
vn -0.9569 0.0000 -0.2903
vn 0.2412 -0.9619 0.1289
vn 0.2412 0.9619 0.1289
vn -0.8819 0.0000 -0.4714
vn 0.2114 -0.9619 0.1735
vn 0.2114 0.9619 0.1735
vn -0.7730 0.0000 -0.6344
vn 0.1735 -0.9619 0.2114
vn 0.1735 0.9619 0.2114
vn -0.6344 0.0000 -0.7730
vn 0.1289 -0.9619 0.2412
vn 0.1289 0.9619 0.2412
vn -0.4714 0.0000 -0.8819
vn 0.0794 -0.9619 0.2617
vn 0.0794 0.9619 0.2617
vn -0.2903 0.0000 -0.9569
vn 0.0268 -0.9619 0.2722
vn 0.0268 0.9619 0.2722
vn -0.0980 0.0000 -0.9952
s off
f 1//1 3//1 5//1
f 2//2 6//2 4//2
f 4//3 5//3 3//3
f 1//4 5//4 7//4
f 2//5 8//5 6//5
f 6//6 7//6 5//6
f 1//7 7//7 9//7
f 2//8 10//8 8//8
f 8//9 9//9 7//9
f 1//10 9//10 11//10
f 2//11 12//11 10//11
f 10//12 11//12 9//12
f 1//13 11//13 13//13
f 2//14 14//14 12//14
f 12//15 13//15 11//15
f 1//16 13//16 15//16
f 2//17 16//17 14//17
f 14//18 15//18 13//18
f 1//19 15//19 17//19
f 2//20 18//20 16//20
f 16//21 17//21 15//21
f 1//22 17//22 19//22
f 2//23 20//23 18//23
f 18//24 19//24 17//24
f 1//25 19//25 21//25
f 2//26 22//26 20//26
f 20//27 21//27 19//27
f 1//28 21//28 23//28
f 2//29 24//29 22//29
f 22//30 23//30 21//30
f 1//31 23//31 25//31
f 2//32 26//32 24//32
f 24//33 25//33 23//33
f 1//34 25//34 27//34
f 2//35 28//35 26//35
f 26//36 27//36 25//36
f 1//37 27//37 29//37
f 2//38 30//38 28//38
f 28//39 29//39 27//39
f 1//40 29//40 31//40
f 2//41 32//41 30//41
f 30//42 31//42 29//42
f 1//43 31//43 33//43
f 2//44 34//44 32//44
f 32//45 33//45 31//45
f 1//46 33//46 35//46
f 2//47 36//47 34//47
f 34//48 35//48 33//48
f 1//49 35//49 37//49
f 2//50 38//50 36//50
f 36//51 37//51 35//51
f 1//52 37//52 39//52
f 2//53 40//53 38//53
f 38//54 39//54 37//54
f 1//55 39//55 41//55
f 2//56 42//56 40//56
f 40//57 41//57 39//57
f 1//58 41//58 43//58
f 2//59 44//59 42//59
f 42//60 43//60 41//60
f 1//61 43//61 45//61
f 2//62 46//62 44//62
f 44//63 45//63 43//63
f 1//64 45//64 47//64
f 2//65 48//65 46//65
f 46//66 47//66 45//66
f 1//67 47//67 49//67
f 2//68 50//68 48//68
f 48//69 49//69 47//69
f 1//70 49//70 51//70
f 2//71 52//71 50//71
f 50//72 51//72 49//72
f 1//73 51//73 53//73
f 2//74 54//74 52//74
f 52//75 53//75 51//75
f 1//76 53//76 55//76
f 2//77 56//77 54//77
f 54//78 55//78 53//78
f 1//79 55//79 57//79
f 2//80 58//80 56//80
f 56//81 57//81 55//81
f 1//82 57//82 59//82
f 2//83 60//83 58//83
f 58//84 59//84 57//84
f 1//85 59//85 61//85
f 2//86 62//86 60//86
f 60//87 61//87 59//87
f 1//88 61//88 63//88
f 2//89 64//89 62//89
f 62//90 63//90 61//90
f 1//91 63//91 65//91
f 2//92 66//92 64//92
f 64//93 65//93 63//93
f 1//94 65//94 3//94
f 2//95 4//95 66//95
f 66//96 3//96 65//96
f 4//3 6//3 5//3
f 6//6 8//6 7//6
f 8//9 10//9 9//9
f 10//12 12//12 11//12
f 12//15 14//15 13//15
f 14//18 16//18 15//18
f 16//21 18//21 17//21
f 18//24 20//24 19//24
f 20//27 22//27 21//27
f 22//30 24//30 23//30
f 24//33 26//33 25//33
f 26//36 28//36 27//36
f 28//39 30//39 29//39
f 30//42 32//42 31//42
f 32//45 34//45 33//45
f 34//48 36//48 35//48
f 36//51 38//51 37//51
f 38//54 40//54 39//54
f 40//57 42//57 41//57
f 42//60 44//60 43//60
f 44//63 46//63 45//63
f 46//66 48//66 47//66
f 48//69 50//69 49//69
f 50//72 52//72 51//72
f 52//75 54//75 53//75
f 54//78 56//78 55//78
f 56//81 58//81 57//81
f 58//84 60//84 59//84
f 60//87 62//87 61//87
f 62//90 64//90 63//90
f 64//93 66//93 65//93
f 66//96 4//96 3//96
